<svg preserveAspectRatio="none" overflow="visible" style="display: block;" width="1080" height="381.946" viewBox="0 0 1080 381.946" fill="none" xmlns="http://www.w3.org/2000/svg">
<path id="Vector 2155" d="M5.75318 257.308C5.09409 255.788 3.32749 255.09 1.80737 255.749C0.287252 256.408 -0.410749 258.174 0.248343 259.695L3.00076 258.501L5.75318 257.308ZM1048 16C1048 24.8366 1055.16 32 1064 32C1072.84 32 1080 24.8366 1080 16C1080 7.16344 1072.84 0 1064 0C1055.16 0 1048 7.16344 1048 16ZM3.00076 258.501C0.248343 259.695 0.249375 259.697 0.250856 259.7C0.251947 259.703 0.25388 259.707 0.256065 259.712C0.260436 259.722 0.266604 259.737 0.274567 259.755C0.290493 259.791 0.3136 259.844 0.343872 259.912C0.404417 260.049 0.49363 260.248 0.611395 260.508C0.846919 261.028 1.19669 261.789 1.65978 262.765C2.58588 264.716 3.96564 267.531 5.79166 271.011C9.4426 277.967 14.8835 287.59 22.0563 298.282C36.3745 319.625 57.7221 345.423 85.6749 362.679C113.726 379.995 148.442 388.701 189.118 375.687C229.649 362.719 275.708 328.307 326.898 260.305L324.501 258.501L322.104 256.697C271.293 324.196 226.165 357.534 187.29 369.972C148.559 382.364 115.651 374.133 88.8266 357.574C61.9044 340.954 41.1271 315.94 27.039 294.939C20.0086 284.46 14.6761 275.028 11.1044 268.222C9.31909 264.821 7.97522 262.078 7.08052 260.192C6.63321 259.25 6.29828 258.521 6.07672 258.032C5.96593 257.788 5.8835 257.603 5.82954 257.481C5.80255 257.42 5.78269 257.375 5.76996 257.346C5.76359 257.332 5.75901 257.321 5.75622 257.315C5.75482 257.312 5.75406 257.31 5.75336 257.308C5.75305 257.308 5.75318 257.308 3.00076 258.501ZM324.501 258.501L326.898 260.305C377.646 192.889 422.693 164.596 463.442 156.649C504.243 148.691 541.382 160.986 576.749 176.255C594.273 183.82 611.685 192.266 628.414 199.008C645.244 205.79 661.887 211.072 678.422 212.413C695.024 213.759 711.486 211.13 727.886 202.167C744.242 193.227 760.355 178.087 776.471 154.704L774.001 153.001L771.531 151.299C755.771 174.165 740.306 188.541 725.008 196.902C709.754 205.239 694.486 207.696 678.907 206.432C663.263 205.164 647.277 200.141 630.656 193.443C613.933 186.703 597.072 178.493 579.127 170.746C543.557 155.39 504.977 142.435 462.294 150.759C419.559 159.094 373.355 188.613 322.104 256.697L324.501 258.501ZM774.001 153.001L776.471 154.704C839.764 62.8677 911.575 29.0486 967.392 18.0698C995.341 12.5724 1019.34 12.7905 1036.34 14.378C1044.84 15.1717 1051.57 16.3071 1056.17 17.2392C1058.47 17.7051 1060.24 18.1202 1061.41 18.416C1062 18.5639 1062.45 18.6819 1062.74 18.7616C1062.88 18.8015 1062.99 18.8318 1063.06 18.8514C1063.1 18.8612 1063.12 18.8683 1063.14 18.8726C1063.14 18.8748 1063.15 18.8763 1063.15 18.877C1063.15 18.8774 1063.15 18.8774 1063.15 18.8776C1063.15 18.8775 1063.15 18.8771 1064 16C1064.85 13.1229 1064.85 13.1222 1064.85 13.1213C1064.84 13.1207 1064.84 13.1197 1064.84 13.1186C1064.83 13.1165 1064.82 13.1136 1064.81 13.11C1064.78 13.1029 1064.75 13.093 1064.7 13.0805C1064.62 13.0553 1064.49 13.0196 1064.32 12.9743C1063.99 12.8836 1063.51 12.7548 1062.87 12.5963C1061.61 12.2793 1059.76 11.8438 1057.37 11.3587C1052.58 10.3886 1045.63 9.21953 1036.9 8.40403C1019.44 6.7733 994.848 6.55446 966.234 12.1826C908.926 23.4547 835.738 58.1363 771.531 151.299L774.001 153.001Z" fill="#120048"/>
</svg>
